<svg width="803" height="668" viewBox="0 0 803 668" fill="none" xmlns="http://www.w3.org/2000/svg">
<path d="M801.478 0H-22V443.135H801.478V0Z" fill="#3F3D56"/>
<path d="M134.127 62.4747H126.865V74.0979H134.127V62.4747Z" fill="#6C63FF"/>
<path d="M158.817 59.5689H151.555V71.1921H158.817V59.5689Z" fill="#6C63FF"/>
<path d="M171.888 59.5689H164.626V71.1921H171.888V59.5689Z" fill="#6C63FF"/>
<path d="M171.888 94.4385H164.626V106.062H171.888V94.4385Z" fill="#6C63FF"/>
<path d="M186.411 77.0037H179.149V88.6269H186.411V77.0037Z" fill="#6C63FF"/>
<path d="M186.411 95.8914H179.149V107.515H186.411V95.8914Z" fill="#6C63FF"/>
<path d="M171.888 132.214H164.626V143.837H171.888V132.214Z" fill="#6C63FF"/>
<path d="M186.411 151.102H179.149V162.725H186.411V151.102Z" fill="#6C63FF"/>
<path d="M171.888 222.294H164.626V233.917H171.888V222.294Z" fill="#6C63FF"/>
<path d="M158.817 151.102H151.555V162.725H158.817V151.102Z" fill="#6C63FF"/>
<path d="M134.127 81.3625H126.865V92.9856H134.127V81.3625Z" fill="#6C63FF"/>
<path d="M134.127 262.975H126.865V274.598H134.127V262.975Z" fill="#6C63FF"/>
<path d="M134.127 300.75H126.865V312.374H134.127V300.75Z" fill="#6C63FF"/>
<path d="M134.127 319.638H126.865V331.261H134.127V319.638Z" fill="#6C63FF"/>
<path d="M134.127 101.703H123.96V103.156H134.127V101.703Z" fill="#6C63FF"/>
<path d="M173.34 119.138H163.174V120.591H173.34V119.138Z" fill="#6C63FF"/>
<path d="M134.127 194.689H123.96V196.142H134.127V194.689Z" fill="#6C63FF"/>
<path d="M134.127 210.671H123.96V212.123H134.127V210.671Z" fill="#6C63FF"/>
<path d="M173.34 303.656H163.174V305.109H173.34V303.656Z" fill="#6C63FF"/>
<path d="M161.721 338.526H151.555V339.979H161.721V338.526Z" fill="#6C63FF"/>
<path d="M126.865 114.78V117.685H129.769V123.497H126.865V126.402H134.127V114.78H126.865Z" fill="#6C63FF"/>
<path d="M151.555 94.4389V97.3443H154.46V103.156H151.555V106.061H158.817V94.4389H151.555Z" fill="#6C63FF"/>
<path d="M179.15 113.326V116.232H182.054V122.044H179.15V124.949H186.411V113.326H179.15Z" fill="#6C63FF"/>
<path d="M179.15 169.99V172.895H182.054V178.707H179.15V181.612H186.411V169.99H179.15Z" fill="#6C63FF"/>
<path d="M179.15 188.877V191.783H182.054V197.595H179.15V200.5H186.411V188.877H179.15Z" fill="#6C63FF"/>
<path d="M179.15 130.761V133.667H182.054V139.478H179.15V142.385H186.411V130.761H179.15Z" fill="#6C63FF"/>
<path d="M164.626 77.0036V79.91H167.531V85.7208H164.626V88.6271H171.888V77.0036H164.626Z" fill="#6C63FF"/>
<path d="M171.888 169.989H164.626V181.613H171.888V169.989Z" fill="#6C63FF"/>
<path d="M171.888 204.859H164.626V216.482H171.888V204.859Z" fill="#6C63FF"/>
<path d="M164.626 187.424V190.33H167.531V196.141H164.626V199.048H171.888V187.424H164.626Z" fill="#6C63FF"/>
<path d="M151.555 113.326V116.232H154.46V122.044H151.555V124.949H158.817V113.326H151.555Z" fill="#6C63FF"/>
<path d="M151.555 132.214V135.12H154.46V140.931H151.555V143.837H158.817V132.214H151.555Z" fill="#6C63FF"/>
<path d="M158.817 188.877H151.555V200.5H158.817V188.877Z" fill="#6C63FF"/>
<path d="M151.555 169.99V172.895H154.46V178.707H151.555V181.612H158.817V169.99H151.555Z" fill="#6C63FF"/>
<path d="M158.817 226.652H151.555V238.276H158.817V226.652Z" fill="#6C63FF"/>
<path d="M151.555 207.765V210.67H154.46V216.482H151.555V219.388H158.817V207.765H151.555Z" fill="#6C63FF"/>
<path d="M158.817 264.428H151.555V276.051H158.817V264.428Z" fill="#6C63FF"/>
<path d="M171.888 261.522H164.626V273.145H171.888V261.522Z" fill="#6C63FF"/>
<path d="M151.555 245.54V248.446H154.46V254.258H151.555V257.163H158.817V245.54H151.555Z" fill="#6C63FF"/>
<path d="M179.15 245.54V248.446H182.054V254.258H179.15V257.163H186.411V245.54H179.15Z" fill="#6C63FF"/>
<path d="M260.481 77.0037H253.219V88.6269H260.481V77.0037Z" fill="#6C63FF"/>
<path d="M260.481 95.8914H253.219V107.515H260.481V95.8914Z" fill="#6C63FF"/>
<path d="M260.481 151.102H253.219V162.725H260.481V151.102Z" fill="#6C63FF"/>
<path d="M253.219 113.326V116.232H256.124V122.044H253.219V124.949H260.48V113.326H253.219Z" fill="#6C63FF"/>
<path d="M253.219 169.99V172.895H256.124V178.707H253.219V181.612H260.48V169.99H253.219Z" fill="#6C63FF"/>
<path d="M253.219 188.877V191.783H256.124V197.595H253.219V200.5H260.48V188.877H253.219Z" fill="#6C63FF"/>
<path d="M253.219 130.761V133.667H256.124V139.478H253.219V142.385H260.48V130.761H253.219Z" fill="#6C63FF"/>
<path d="M253.219 245.54V248.446H256.124V254.258H253.219V257.163H260.48V245.54H253.219Z" fill="#6C63FF"/>
<path d="M158.817 302.203H151.555V313.827H158.817V302.203Z" fill="#6C63FF"/>
<path d="M171.888 280.41H164.626V292.033H171.888V280.41Z" fill="#6C63FF"/>
<path d="M158.817 351.602H151.555V363.225H158.817V351.602Z" fill="#6C63FF"/>
<path d="M171.888 316.732H164.626V328.356H171.888V316.732Z" fill="#6C63FF"/>
<path d="M151.555 283.316V286.221H154.46V292.033H151.555V294.939H158.817V283.316H151.555Z" fill="#6C63FF"/>
<path d="M151.555 371.943V374.848H154.46V380.66H151.555V383.565H158.817V371.943H151.555Z" fill="#6C63FF"/>
<path d="M238.695 59.5689H231.434V71.1921H238.695V59.5689Z" fill="#6C63FF"/>
<path d="M238.695 151.102H231.434V162.725H238.695V151.102Z" fill="#6C63FF"/>
<path d="M241.6 338.526H231.434V339.979H241.6V338.526Z" fill="#6C63FF"/>
<path d="M231.434 94.4389V97.3443H234.339V103.156H231.434V106.061H238.695V94.4389H231.434Z" fill="#6C63FF"/>
<path d="M231.434 113.326V116.232H234.339V122.044H231.434V124.949H238.695V113.326H231.434Z" fill="#6C63FF"/>
<path d="M231.434 132.214V135.12H234.339V140.931H231.434V143.837H238.695V132.214H231.434Z" fill="#6C63FF"/>
<path d="M238.695 188.877H231.434V200.5H238.695V188.877Z" fill="#6C63FF"/>
<path d="M231.434 169.99V172.895H234.339V178.707H231.434V181.612H238.695V169.99H231.434Z" fill="#6C63FF"/>
<path d="M238.695 226.652H231.434V238.276H238.695V226.652Z" fill="#6C63FF"/>
<path d="M231.434 207.765V210.67H234.339V216.482H231.434V219.388H238.695V207.765H231.434Z" fill="#6C63FF"/>
<path d="M238.695 264.428H231.434V276.051H238.695V264.428Z" fill="#6C63FF"/>
<path d="M231.434 245.54V248.446H234.339V254.258H231.434V257.163H238.695V245.54H231.434Z" fill="#6C63FF"/>
<path d="M238.695 302.203H231.434V313.827H238.695V302.203Z" fill="#6C63FF"/>
<path d="M238.695 351.602H231.434V363.225H238.695V351.602Z" fill="#6C63FF"/>
<path d="M231.434 283.316V286.221H234.339V292.033H231.434V294.939H238.695V283.316H231.434Z" fill="#6C63FF"/>
<path d="M231.434 371.943V374.848H234.339V380.66H231.434V383.565H238.695V371.943H231.434Z" fill="#6C63FF"/>
<path d="M273.552 59.5689H266.29V71.1921H273.552V59.5689Z" fill="#6C63FF"/>
<path d="M273.552 151.102H266.29V162.725H273.552V151.102Z" fill="#6C63FF"/>
<path d="M276.456 338.526H266.29V339.979H276.456V338.526Z" fill="#6C63FF"/>
<path d="M266.29 94.4389V97.3443H269.195V103.156H266.29V106.061H273.551V94.4389H266.29Z" fill="#6C63FF"/>
<path d="M266.29 113.326V116.232H269.195V122.044H266.29V124.949H273.551V113.326H266.29Z" fill="#6C63FF"/>
<path d="M266.29 132.214V135.12H269.195V140.931H266.29V143.837H273.551V132.214H266.29Z" fill="#6C63FF"/>
<path d="M273.552 188.877H266.29V200.5H273.552V188.877Z" fill="#6C63FF"/>
<path d="M266.29 169.99V172.895H269.195V178.707H266.29V181.612H273.551V169.99H266.29Z" fill="#6C63FF"/>
<path d="M273.552 226.652H266.29V238.276H273.552V226.652Z" fill="#6C63FF"/>
<path d="M266.29 207.765V210.67H269.195V216.482H266.29V219.388H273.551V207.765H266.29Z" fill="#6C63FF"/>
<path d="M273.552 264.428H266.29V276.051H273.552V264.428Z" fill="#6C63FF"/>
<path d="M266.29 245.54V248.446H269.195V254.258H266.29V257.163H273.551V245.54H266.29Z" fill="#6C63FF"/>
<path d="M273.552 302.203H266.29V313.827H273.552V302.203Z" fill="#6C63FF"/>
<path d="M273.552 351.602H266.29V363.225H273.552V351.602Z" fill="#6C63FF"/>
<path d="M266.29 283.316V286.221H269.195V292.033H266.29V294.939H273.551V283.316H266.29Z" fill="#6C63FF"/>
<path d="M266.29 371.943V374.848H269.195V380.66H266.29V383.565H273.551V371.943H266.29Z" fill="#6C63FF"/>
<path d="M164.626 351.602V354.508H167.531V360.319H164.626V363.225H171.888V351.602H164.626Z" fill="#6C63FF"/>
<path d="M164.626 370.49V373.396H167.531V379.207H164.626V382.113H171.888V370.49H164.626Z" fill="#6C63FF"/>
<path d="M126.865 151.102V154.007H129.769V159.819H126.865V162.725H134.127V151.102H126.865Z" fill="#6C63FF"/>
<path d="M126.865 225.2V228.105H129.769V233.917H126.865V236.823H134.127V225.2H126.865Z" fill="#6C63FF"/>
<path d="M126.865 244.087V246.993H129.769V252.805H126.865V255.711H134.127V244.087H126.865Z" fill="#6C63FF"/>
<path d="M126.865 281.863V284.768H129.769V290.58H126.865V293.486H134.127V281.863H126.865Z" fill="#6C63FF"/>
<path d="M126.865 335.62V338.526H129.769V344.338H126.865V347.243H134.127V335.62H126.865Z" fill="#6C63FF"/>
<path d="M126.865 351.602V354.508H129.769V360.319H126.865V363.225H134.127V351.602H126.865Z" fill="#6C63FF"/>
<path d="M209.649 62.4747H202.387V74.0979H209.649V62.4747Z" fill="#6C63FF"/>
<path d="M209.649 81.3625H202.387V92.9856H209.649V81.3625Z" fill="#6C63FF"/>
<path d="M209.649 101.703H199.482V103.156H209.649V101.703Z" fill="#6C63FF"/>
<path d="M209.649 194.689H199.482V196.142H209.649V194.689Z" fill="#6C63FF"/>
<path d="M209.649 210.671H199.482V212.123H209.649V210.671Z" fill="#6C63FF"/>
<path d="M202.387 114.78V117.685H205.291V123.497H202.387V126.402H209.649V114.78H202.387Z" fill="#6C63FF"/>
<path d="M202.387 151.102V154.007H205.291V159.819H202.387V162.725H209.649V151.102H202.387Z" fill="#6C63FF"/>
<path d="M202.387 225.2V228.105H205.291V233.917H202.387V236.823H209.649V225.2H202.387Z" fill="#6C63FF"/>
<path d="M292.432 188.877H285.17V200.5H292.432V188.877Z" fill="#6C63FF"/>
<path d="M292.432 207.765H285.17V219.388H292.432V207.765Z" fill="#6C63FF"/>
<path d="M292.432 228.105H282.266V229.558H292.432V228.105Z" fill="#6C63FF"/>
<path d="M292.432 321.091H282.266V322.544H292.432V321.091Z" fill="#6C63FF"/>
<path d="M292.432 337.073H282.266V338.526H292.432V337.073Z" fill="#6C63FF"/>
<path d="M285.171 241.182V244.087H288.075V249.899H285.171V252.805H292.432V241.182H285.171Z" fill="#6C63FF"/>
<path d="M285.171 277.504V280.41H288.075V286.221H285.171V289.127H292.432V277.504H285.171Z" fill="#6C63FF"/>
<path d="M285.171 351.602V354.508H288.075V360.319H285.171V363.225H292.432V351.602H285.171Z" fill="#6C63FF"/>
<path d="M315.67 62.4747H308.408V74.0979H315.67V62.4747Z" fill="#6C63FF"/>
<path d="M340.359 59.5689H333.098V71.1921H340.359V59.5689Z" fill="#6C63FF"/>
<path d="M353.431 59.5689H346.169V71.1921H353.431V59.5689Z" fill="#6C63FF"/>
<path d="M353.431 94.4385H346.169V106.062H353.431V94.4385Z" fill="#6C63FF"/>
<path d="M367.954 77.0037H360.692V88.6269H367.954V77.0037Z" fill="#6C63FF"/>
<path d="M367.954 95.8914H360.692V107.515H367.954V95.8914Z" fill="#6C63FF"/>
<path d="M353.431 132.214H346.169V143.837H353.431V132.214Z" fill="#6C63FF"/>
<path d="M367.954 151.102H360.692V162.725H367.954V151.102Z" fill="#6C63FF"/>
<path d="M353.431 222.294H346.169V233.917H353.431V222.294Z" fill="#6C63FF"/>
<path d="M340.359 151.102H333.098V162.725H340.359V151.102Z" fill="#6C63FF"/>
<path d="M315.67 81.3625H308.408V92.9856H315.67V81.3625Z" fill="#6C63FF"/>
<path d="M315.67 262.975H308.408V274.598H315.67V262.975Z" fill="#6C63FF"/>
<path d="M315.67 300.75H308.408V312.374H315.67V300.75Z" fill="#6C63FF"/>
<path d="M315.67 319.638H308.408V331.261H315.67V319.638Z" fill="#6C63FF"/>
<path d="M315.67 101.703H305.503V103.156H315.67V101.703Z" fill="#6C63FF"/>
<path d="M354.883 119.138H344.716V120.591H354.883V119.138Z" fill="#6C63FF"/>
<path d="M315.67 194.689H305.503V196.142H315.67V194.689Z" fill="#6C63FF"/>
<path d="M315.67 210.671H305.503V212.123H315.67V210.671Z" fill="#6C63FF"/>
<path d="M354.883 303.656H344.716V305.109H354.883V303.656Z" fill="#6C63FF"/>
<path d="M343.264 338.526H333.098V339.979H343.264V338.526Z" fill="#6C63FF"/>
<path d="M308.408 114.78V117.685H311.313V123.497H308.408V126.402H315.669V114.78H308.408Z" fill="#6C63FF"/>
<path d="M333.098 94.4389V97.3443H336.002V103.156H333.098V106.061H340.359V94.4389H333.098Z" fill="#6C63FF"/>
<path d="M360.692 113.326V116.232H363.597V122.044H360.692V124.949H367.954V113.326H360.692Z" fill="#6C63FF"/>
<path d="M360.692 169.99V172.895H363.597V178.707H360.692V181.612H367.954V169.99H360.692Z" fill="#6C63FF"/>
<path d="M360.692 188.877V191.783H363.597V197.595H360.692V200.5H367.954V188.877H360.692Z" fill="#6C63FF"/>
<path d="M360.692 130.761V133.667H363.597V139.478H360.692V142.385H367.954V130.761H360.692Z" fill="#6C63FF"/>
<path d="M346.169 77.0036V79.91H349.073V85.7208H346.169V88.6271H353.431V77.0036H346.169Z" fill="#6C63FF"/>
<path d="M353.431 169.989H346.169V181.613H353.431V169.989Z" fill="#6C63FF"/>
<path d="M353.431 204.859H346.169V216.482H353.431V204.859Z" fill="#6C63FF"/>
<path d="M346.169 187.424V190.33H349.073V196.141H346.169V199.048H353.431V187.424H346.169Z" fill="#6C63FF"/>
<path d="M333.098 113.326V116.232H336.002V122.044H333.098V124.949H340.359V113.326H333.098Z" fill="#6C63FF"/>
<path d="M333.098 132.214V135.12H336.002V140.931H333.098V143.837H340.359V132.214H333.098Z" fill="#6C63FF"/>
<path d="M340.359 188.877H333.098V200.5H340.359V188.877Z" fill="#6C63FF"/>
<path d="M333.098 169.99V172.895H336.002V178.707H333.098V181.612H340.359V169.99H333.098Z" fill="#6C63FF"/>
<path d="M340.359 226.652H333.098V238.276H340.359V226.652Z" fill="#6C63FF"/>
<path d="M333.098 207.765V210.67H336.002V216.482H333.098V219.388H340.359V207.765H333.098Z" fill="#6C63FF"/>
<path d="M340.359 264.428H333.098V276.051H340.359V264.428Z" fill="#6C63FF"/>
<path d="M353.431 261.522H346.169V273.145H353.431V261.522Z" fill="#6C63FF"/>
<path d="M333.098 245.54V248.446H336.002V254.258H333.098V257.163H340.359V245.54H333.098Z" fill="#6C63FF"/>
<path d="M360.692 245.54V248.446H363.597V254.258H360.692V257.163H367.954V245.54H360.692Z" fill="#6C63FF"/>
<path d="M442.023 77.0037H434.762V88.6269H442.023V77.0037Z" fill="#6C63FF"/>
<path d="M442.023 95.8914H434.762V107.515H442.023V95.8914Z" fill="#6C63FF"/>
<path d="M442.023 151.102H434.762V162.725H442.023V151.102Z" fill="#6C63FF"/>
<path d="M434.762 113.326V116.232H437.666V122.044H434.762V124.949H442.024V113.326H434.762Z" fill="#6C63FF"/>
<path d="M434.762 169.99V172.895H437.666V178.707H434.762V181.612H442.024V169.99H434.762Z" fill="#6C63FF"/>
<path d="M434.762 188.877V191.783H437.666V197.595H434.762V200.5H442.024V188.877H434.762Z" fill="#6C63FF"/>
<path d="M434.762 130.761V133.667H437.666V139.478H434.762V142.385H442.024V130.761H434.762Z" fill="#6C63FF"/>
<path d="M434.762 245.54V248.446H437.666V254.258H434.762V257.163H442.024V245.54H434.762Z" fill="#6C63FF"/>
<path d="M340.359 302.203H333.098V313.827H340.359V302.203Z" fill="#6C63FF"/>
<path d="M353.431 280.41H346.169V292.033H353.431V280.41Z" fill="#6C63FF"/>
<path d="M340.359 351.602H333.098V363.225H340.359V351.602Z" fill="#6C63FF"/>
<path d="M353.431 316.732H346.169V328.356H353.431V316.732Z" fill="#6C63FF"/>
<path d="M333.098 283.316V286.221H336.002V292.033H333.098V294.939H340.359V283.316H333.098Z" fill="#6C63FF"/>
<path d="M333.098 371.943V374.848H336.002V380.66H333.098V383.565H340.359V371.943H333.098Z" fill="#6C63FF"/>
<path d="M420.238 59.5689H412.977V71.1921H420.238V59.5689Z" fill="#6C63FF"/>
<path d="M420.238 151.102H412.977V162.725H420.238V151.102Z" fill="#6C63FF"/>
<path d="M423.143 338.526H412.977V339.979H423.143V338.526Z" fill="#6C63FF"/>
<path d="M412.976 94.4389V97.3443H415.882V103.156H412.976V106.061H420.238V94.4389H412.976Z" fill="#6C63FF"/>
<path d="M412.976 113.326V116.232H415.882V122.044H412.976V124.949H420.238V113.326H412.976Z" fill="#6C63FF"/>
<path d="M412.976 132.214V135.12H415.882V140.931H412.976V143.837H420.238V132.214H412.976Z" fill="#6C63FF"/>
<path d="M420.238 188.877H412.977V200.5H420.238V188.877Z" fill="#6C63FF"/>
<path d="M412.976 169.99V172.895H415.882V178.707H412.976V181.612H420.238V169.99H412.976Z" fill="#6C63FF"/>
<path d="M420.238 226.652H412.977V238.276H420.238V226.652Z" fill="#6C63FF"/>
<path d="M412.976 207.765V210.67H415.882V216.482H412.976V219.388H420.238V207.765H412.976Z" fill="#6C63FF"/>
<path d="M420.238 264.428H412.977V276.051H420.238V264.428Z" fill="#6C63FF"/>
<path d="M412.976 245.54V248.446H415.882V254.258H412.976V257.163H420.238V245.54H412.976Z" fill="#6C63FF"/>
<path d="M420.238 302.203H412.977V313.827H420.238V302.203Z" fill="#6C63FF"/>
<path d="M420.238 351.602H412.977V363.225H420.238V351.602Z" fill="#6C63FF"/>
<path d="M412.976 283.316V286.221H415.882V292.033H412.976V294.939H420.238V283.316H412.976Z" fill="#6C63FF"/>
<path d="M412.976 371.943V374.848H415.882V380.66H412.976V383.565H420.238V371.943H412.976Z" fill="#6C63FF"/>
<path d="M455.095 59.5689H447.833V71.1921H455.095V59.5689Z" fill="#6C63FF"/>
<path d="M455.095 151.102H447.833V162.725H455.095V151.102Z" fill="#6C63FF"/>
<path d="M457.999 338.526H447.833V339.979H457.999V338.526Z" fill="#6C63FF"/>
<path d="M447.832 94.4389V97.3443H450.738V103.156H447.832V106.061H455.094V94.4389H447.832Z" fill="#6C63FF"/>
<path d="M447.832 113.326V116.232H450.738V122.044H447.832V124.949H455.094V113.326H447.832Z" fill="#6C63FF"/>
<path d="M447.832 132.214V135.12H450.738V140.931H447.832V143.837H455.094V132.214H447.832Z" fill="#6C63FF"/>
<path d="M455.095 188.877H447.833V200.5H455.095V188.877Z" fill="#6C63FF"/>
<path d="M447.832 169.99V172.895H450.738V178.707H447.832V181.612H455.094V169.99H447.832Z" fill="#6C63FF"/>
<path d="M455.095 226.652H447.833V238.276H455.095V226.652Z" fill="#6C63FF"/>
<path d="M447.832 207.765V210.67H450.738V216.482H447.832V219.388H455.094V207.765H447.832Z" fill="#6C63FF"/>
<path d="M455.095 264.428H447.833V276.051H455.095V264.428Z" fill="#6C63FF"/>
<path d="M447.832 245.54V248.446H450.738V254.258H447.832V257.163H455.094V245.54H447.832Z" fill="#6C63FF"/>
<path d="M455.095 302.203H447.833V313.827H455.095V302.203Z" fill="#6C63FF"/>
<path d="M455.095 351.602H447.833V363.225H455.095V351.602Z" fill="#6C63FF"/>
<path d="M447.832 283.316V286.221H450.738V292.033H447.832V294.939H455.094V283.316H447.832Z" fill="#6C63FF"/>
<path d="M447.832 371.943V374.848H450.738V380.66H447.832V383.565H455.094V371.943H447.832Z" fill="#6C63FF"/>
<path d="M346.169 351.602V354.508H349.073V360.319H346.169V363.225H353.431V351.602H346.169Z" fill="#6C63FF"/>
<path d="M346.169 370.49V373.396H349.073V379.207H346.169V382.113H353.431V370.49H346.169Z" fill="#6C63FF"/>
<path d="M308.408 151.102V154.007H311.313V159.819H308.408V162.725H315.669V151.102H308.408Z" fill="#6C63FF"/>
<path d="M308.408 225.2V228.105H311.313V233.917H308.408V236.823H315.669V225.2H308.408Z" fill="#6C63FF"/>
<path d="M308.408 244.087V246.993H311.313V252.805H308.408V255.711H315.669V244.087H308.408Z" fill="#6C63FF"/>
<path d="M308.408 281.863V284.768H311.313V290.58H308.408V293.486H315.669V281.863H308.408Z" fill="#6C63FF"/>
<path d="M308.408 335.62V338.526H311.313V344.338H308.408V347.243H315.669V335.62H308.408Z" fill="#6C63FF"/>
<path d="M308.408 351.602V354.508H311.313V360.319H308.408V363.225H315.669V351.602H308.408Z" fill="#6C63FF"/>
<path d="M391.191 62.4747H383.93V74.0979H391.191V62.4747Z" fill="#6C63FF"/>
<path d="M391.191 81.3625H383.93V92.9856H391.191V81.3625Z" fill="#6C63FF"/>
<path d="M391.191 101.703H381.025V103.156H391.191V101.703Z" fill="#6C63FF"/>
<path d="M391.191 194.689H381.025V196.142H391.191V194.689Z" fill="#6C63FF"/>
<path d="M391.191 210.671H381.025V212.123H391.191V210.671Z" fill="#6C63FF"/>
<path d="M383.93 114.78V117.685H386.835V123.497H383.93V126.402H391.191V114.78H383.93Z" fill="#6C63FF"/>
<path d="M383.93 151.102V154.007H386.835V159.819H383.93V162.725H391.191V151.102H383.93Z" fill="#6C63FF"/>
<path d="M383.93 225.2V228.105H386.835V233.917H383.93V236.823H391.191V225.2H383.93Z" fill="#6C63FF"/>
<path d="M473.975 188.877H466.713V200.5H473.975V188.877Z" fill="#6C63FF"/>
<path d="M473.975 207.765H466.713V219.388H473.975V207.765Z" fill="#6C63FF"/>
<path d="M473.975 228.105H463.809V229.558H473.975V228.105Z" fill="#6C63FF"/>
<path d="M473.975 321.091H463.809V322.544H473.975V321.091Z" fill="#6C63FF"/>
<path d="M473.975 337.073H463.809V338.526H473.975V337.073Z" fill="#6C63FF"/>
<path d="M466.713 241.182V244.087H469.618V249.899H466.713V252.805H473.975V241.182H466.713Z" fill="#6C63FF"/>
<path d="M466.713 277.504V280.41H469.618V286.221H466.713V289.127H473.975V277.504H466.713Z" fill="#6C63FF"/>
<path d="M466.713 351.602V354.508H469.618V360.319H466.713V363.225H473.975V351.602H466.713Z" fill="#6C63FF"/>
<path d="M497.212 62.4747H489.951V74.0979H497.212V62.4747Z" fill="#6C63FF"/>
<path d="M521.902 59.5689H514.641V71.1921H521.902V59.5689Z" fill="#6C63FF"/>
<path d="M534.973 59.5689H527.712V71.1921H534.973V59.5689Z" fill="#6C63FF"/>
<path d="M534.973 94.4385H527.712V106.062H534.973V94.4385Z" fill="#6C63FF"/>
<path d="M549.497 77.0037H542.235V88.6269H549.497V77.0037Z" fill="#6C63FF"/>
<path d="M549.497 95.8914H542.235V107.515H549.497V95.8914Z" fill="#6C63FF"/>
<path d="M534.973 132.214H527.712V143.837H534.973V132.214Z" fill="#6C63FF"/>
<path d="M549.497 151.102H542.235V162.725H549.497V151.102Z" fill="#6C63FF"/>
<path d="M534.973 222.294H527.712V233.917H534.973V222.294Z" fill="#6C63FF"/>
<path d="M521.902 151.102H514.641V162.725H521.902V151.102Z" fill="#6C63FF"/>
<path d="M497.212 81.3625H489.951V92.9856H497.212V81.3625Z" fill="#6C63FF"/>
<path d="M497.212 262.975H489.951V274.598H497.212V262.975Z" fill="#6C63FF"/>
<path d="M497.212 300.75H489.951V312.374H497.212V300.75Z" fill="#6C63FF"/>
<path d="M497.212 319.638H489.951V331.261H497.212V319.638Z" fill="#6C63FF"/>
<path d="M497.212 101.703H487.046V103.156H497.212V101.703Z" fill="#6C63FF"/>
<path d="M536.426 119.138H526.259V120.591H536.426V119.138Z" fill="#6C63FF"/>
<path d="M497.212 194.689H487.046V196.142H497.212V194.689Z" fill="#6C63FF"/>
<path d="M497.212 210.671H487.046V212.123H497.212V210.671Z" fill="#6C63FF"/>
<path d="M536.426 303.656H526.259V305.109H536.426V303.656Z" fill="#6C63FF"/>
<path d="M524.807 338.526H514.641V339.979H524.807V338.526Z" fill="#6C63FF"/>
<path d="M489.95 114.78V117.685H492.856V123.497H489.95V126.402H497.213V114.78H489.95Z" fill="#6C63FF"/>
<path d="M514.64 94.4389V97.3443H517.545V103.156H514.64V106.061H521.902V94.4389H514.64Z" fill="#6C63FF"/>
<path d="M542.235 113.326V116.232H545.139V122.044H542.235V124.949H549.497V113.326H542.235Z" fill="#6C63FF"/>
<path d="M542.235 169.99V172.895H545.139V178.707H542.235V181.612H549.497V169.99H542.235Z" fill="#6C63FF"/>
<path d="M542.235 188.877V191.783H545.139V197.595H542.235V200.5H549.497V188.877H542.235Z" fill="#6C63FF"/>
<path d="M542.235 130.761V133.667H545.139V139.478H542.235V142.385H549.497V130.761H542.235Z" fill="#6C63FF"/>
<path d="M527.712 77.0036V79.91H530.616V85.7208H527.712V88.6271H534.973V77.0036H527.712Z" fill="#6C63FF"/>
<path d="M534.973 169.989H527.712V181.613H534.973V169.989Z" fill="#6C63FF"/>
<path d="M534.973 204.859H527.712V216.482H534.973V204.859Z" fill="#6C63FF"/>
<path d="M527.712 187.424V190.33H530.616V196.141H527.712V199.048H534.973V187.424H527.712Z" fill="#6C63FF"/>
<path d="M514.64 113.326V116.232H517.545V122.044H514.64V124.949H521.902V113.326H514.64Z" fill="#6C63FF"/>
<path d="M514.64 132.214V135.12H517.545V140.931H514.64V143.837H521.902V132.214H514.64Z" fill="#6C63FF"/>
<path d="M521.902 188.877H514.641V200.5H521.902V188.877Z" fill="#6C63FF"/>
<path d="M514.64 169.99V172.895H517.545V178.707H514.64V181.612H521.902V169.99H514.64Z" fill="#6C63FF"/>
<path d="M521.902 226.652H514.641V238.276H521.902V226.652Z" fill="#6C63FF"/>
<path d="M514.64 207.765V210.67H517.545V216.482H514.64V219.388H521.902V207.765H514.64Z" fill="#6C63FF"/>
<path d="M521.902 264.428H514.641V276.051H521.902V264.428Z" fill="#6C63FF"/>
<path d="M534.973 261.522H527.712V273.145H534.973V261.522Z" fill="#6C63FF"/>
<path d="M514.64 245.54V248.446H517.545V254.258H514.64V257.163H521.902V245.54H514.64Z" fill="#6C63FF"/>
<path d="M542.235 245.54V248.446H545.139V254.258H542.235V257.163H549.497V245.54H542.235Z" fill="#6C63FF"/>
<path d="M623.566 77.0037H616.305V88.6269H623.566V77.0037Z" fill="#6C63FF"/>
<path d="M623.566 95.8914H616.305V107.515H623.566V95.8914Z" fill="#6C63FF"/>
<path d="M623.566 151.102H616.305V162.725H623.566V151.102Z" fill="#6C63FF"/>
<path d="M616.305 113.326V116.232H619.209V122.044H616.305V124.949H623.566V113.326H616.305Z" fill="#6C63FF"/>
<path d="M616.305 169.99V172.895H619.209V178.707H616.305V181.612H623.566V169.99H616.305Z" fill="#6C63FF"/>
<path d="M616.305 188.877V191.783H619.209V197.595H616.305V200.5H623.566V188.877H616.305Z" fill="#6C63FF"/>
<path d="M616.305 130.761V133.667H619.209V139.478H616.305V142.385H623.566V130.761H616.305Z" fill="#6C63FF"/>
<path d="M616.305 245.54V248.446H619.209V254.258H616.305V257.163H623.566V245.54H616.305Z" fill="#6C63FF"/>
<path d="M521.902 302.203H514.641V313.827H521.902V302.203Z" fill="#6C63FF"/>
<path d="M534.973 280.41H527.712V292.033H534.973V280.41Z" fill="#6C63FF"/>
<path d="M521.902 351.602H514.641V363.225H521.902V351.602Z" fill="#6C63FF"/>
<path d="M534.973 316.732H527.712V328.356H534.973V316.732Z" fill="#6C63FF"/>
<path d="M514.64 283.316V286.221H517.545V292.033H514.64V294.939H521.902V283.316H514.64Z" fill="#6C63FF"/>
<path d="M514.64 371.943V374.848H517.545V380.66H514.64V383.565H521.902V371.943H514.64Z" fill="#6C63FF"/>
<path d="M601.781 59.5689H594.519V71.1921H601.781V59.5689Z" fill="#6C63FF"/>
<path d="M601.781 151.102H594.519V162.725H601.781V151.102Z" fill="#6C63FF"/>
<path d="M604.686 338.526H594.519V339.979H604.686V338.526Z" fill="#6C63FF"/>
<path d="M594.52 94.4389V97.3443H597.424V103.156H594.52V106.061H601.781V94.4389H594.52Z" fill="#6C63FF"/>
<path d="M594.52 113.326V116.232H597.424V122.044H594.52V124.949H601.781V113.326H594.52Z" fill="#6C63FF"/>
<path d="M594.52 132.214V135.12H597.424V140.931H594.52V143.837H601.781V132.214H594.52Z" fill="#6C63FF"/>
<path d="M601.781 188.877H594.519V200.5H601.781V188.877Z" fill="#6C63FF"/>
<path d="M594.52 169.99V172.895H597.424V178.707H594.52V181.612H601.781V169.99H594.52Z" fill="#6C63FF"/>
<path d="M601.781 226.652H594.519V238.276H601.781V226.652Z" fill="#6C63FF"/>
<path d="M594.52 207.765V210.67H597.424V216.482H594.52V219.388H601.781V207.765H594.52Z" fill="#6C63FF"/>
<path d="M601.781 264.428H594.519V276.051H601.781V264.428Z" fill="#6C63FF"/>
<path d="M594.52 245.54V248.446H597.424V254.258H594.52V257.163H601.781V245.54H594.52Z" fill="#6C63FF"/>
<path d="M601.781 302.203H594.519V313.827H601.781V302.203Z" fill="#6C63FF"/>
<path d="M601.781 351.602H594.519V363.225H601.781V351.602Z" fill="#6C63FF"/>
<path d="M594.52 283.316V286.221H597.424V292.033H594.52V294.939H601.781V283.316H594.52Z" fill="#6C63FF"/>
<path d="M594.52 371.943V374.848H597.424V380.66H594.52V383.565H601.781V371.943H594.52Z" fill="#6C63FF"/>
<path d="M636.637 59.5689H629.375V71.1921H636.637V59.5689Z" fill="#6C63FF"/>
<path d="M636.637 151.102H629.375V162.725H636.637V151.102Z" fill="#6C63FF"/>
<path d="M639.542 338.526H629.375V339.979H639.542V338.526Z" fill="#6C63FF"/>
<path d="M629.376 94.4389V97.3443H632.28V103.156H629.376V106.061H636.638V94.4389H629.376Z" fill="#6C63FF"/>
<path d="M629.376 113.326V116.232H632.28V122.044H629.376V124.949H636.638V113.326H629.376Z" fill="#6C63FF"/>
<path d="M629.376 132.214V135.12H632.28V140.931H629.376V143.837H636.638V132.214H629.376Z" fill="#6C63FF"/>
<path d="M636.637 188.877H629.375V200.5H636.637V188.877Z" fill="#6C63FF"/>
<path d="M629.376 169.99V172.895H632.28V178.707H629.376V181.612H636.638V169.99H629.376Z" fill="#6C63FF"/>
<path d="M636.637 226.652H629.375V238.276H636.637V226.652Z" fill="#6C63FF"/>
<path d="M629.376 207.765V210.67H632.28V216.482H629.376V219.388H636.638V207.765H629.376Z" fill="#6C63FF"/>
<path d="M636.637 264.428H629.375V276.051H636.637V264.428Z" fill="#6C63FF"/>
<path d="M629.376 245.54V248.446H632.28V254.258H629.376V257.163H636.638V245.54H629.376Z" fill="#6C63FF"/>
<path d="M636.637 302.203H629.375V313.827H636.637V302.203Z" fill="#6C63FF"/>
<path d="M636.637 351.602H629.375V363.225H636.637V351.602Z" fill="#6C63FF"/>
<path d="M629.376 283.316V286.221H632.28V292.033H629.376V294.939H636.638V283.316H629.376Z" fill="#6C63FF"/>
<path d="M629.376 371.943V374.848H632.28V380.66H629.376V383.565H636.638V371.943H629.376Z" fill="#6C63FF"/>
<path d="M527.712 351.602V354.508H530.616V360.319H527.712V363.225H534.973V351.602H527.712Z" fill="#6C63FF"/>
<path d="M527.712 370.49V373.396H530.616V379.207H527.712V382.113H534.973V370.49H527.712Z" fill="#6C63FF"/>
<path d="M489.95 151.102V154.007H492.856V159.819H489.95V162.725H497.213V151.102H489.95Z" fill="#6C63FF"/>
<path d="M489.95 225.2V228.105H492.856V233.917H489.95V236.823H497.213V225.2H489.95Z" fill="#6C63FF"/>
<path d="M489.95 244.087V246.993H492.856V252.805H489.95V255.711H497.213V244.087H489.95Z" fill="#6C63FF"/>
<path d="M489.95 281.863V284.768H492.856V290.58H489.95V293.486H497.213V281.863H489.95Z" fill="#6C63FF"/>
<path d="M489.95 335.62V338.526H492.856V344.338H489.95V347.243H497.213V335.62H489.95Z" fill="#6C63FF"/>
<path d="M489.95 351.602V354.508H492.856V360.319H489.95V363.225H497.213V351.602H489.95Z" fill="#6C63FF"/>
<path d="M572.734 62.4747H565.473V74.0979H572.734V62.4747Z" fill="#6C63FF"/>
<path d="M572.734 81.3625H565.473V92.9856H572.734V81.3625Z" fill="#6C63FF"/>
<path d="M572.734 101.703H562.568V103.156H572.734V101.703Z" fill="#6C63FF"/>
<path d="M572.734 194.689H562.568V196.142H572.734V194.689Z" fill="#6C63FF"/>
<path d="M572.734 210.671H562.568V212.123H572.734V210.671Z" fill="#6C63FF"/>
<path d="M565.472 114.78V117.685H568.377V123.497H565.472V126.402H572.734V114.78H565.472Z" fill="#6C63FF"/>
<path d="M565.472 151.102V154.007H568.377V159.819H565.472V162.725H572.734V151.102H565.472Z" fill="#6C63FF"/>
<path d="M565.472 225.2V228.105H568.377V233.917H565.472V236.823H572.734V225.2H565.472Z" fill="#6C63FF"/>
<path d="M655.518 188.877H648.256V200.5H655.518V188.877Z" fill="#6C63FF"/>
<path d="M655.518 207.765H648.256V219.388H655.518V207.765Z" fill="#6C63FF"/>
<path d="M655.518 228.105H645.351V229.558H655.518V228.105Z" fill="#6C63FF"/>
<path d="M655.518 321.091H645.351V322.544H655.518V321.091Z" fill="#6C63FF"/>
<path d="M655.518 337.073H645.351V338.526H655.518V337.073Z" fill="#6C63FF"/>
<path d="M648.256 241.182V244.087H651.161V249.899H648.256V252.805H655.517V241.182H648.256Z" fill="#6C63FF"/>
<path d="M648.256 277.504V280.41H651.161V286.221H648.256V289.127H655.517V277.504H648.256Z" fill="#6C63FF"/>
<path d="M648.256 351.602V354.508H651.161V360.319H648.256V363.225H655.517V351.602H648.256Z" fill="#6C63FF"/>
<path d="M340.801 380.677V429.634L347.389 459.762C347.389 459.762 346.448 478.591 347.389 484.24C348.33 489.889 346.448 499.304 340.801 499.304C335.154 499.304 332.331 513.426 332.331 513.426C332.331 513.426 330.449 519.075 325.743 520.016C321.037 520.958 321.037 520.016 321.037 520.016L317.273 529.431L239.16 581.213L254.218 618.872C254.218 618.872 277.746 610.398 279.628 607.574C281.511 604.75 297.51 611.34 297.51 604.75C297.51 598.159 300.333 581.213 305.98 580.271C311.626 579.33 358.682 557.676 358.682 557.676C358.682 557.676 383.151 530.373 385.033 520.016C386.916 509.66 395.386 480.474 395.386 480.474L418.914 520.016V599.101L415.149 641.467L456.558 635.818C456.558 635.818 452.794 609.457 456.558 605.691C460.323 601.925 465.97 556.734 462.205 551.085C458.441 545.436 464.087 520.016 462.205 516.25C460.323 512.485 461.264 485.182 456.558 477.65C451.853 470.118 423.619 392.917 423.619 392.917L340.801 380.677Z" fill="#2F2E41"/>
<path d="M420.796 639.584C420.796 639.584 406.679 663.121 416.09 665.946C425.502 668.77 443.383 665.946 445.265 665.946C447.147 665.946 481.027 666.887 481.027 666.887C481.027 666.887 503.614 662.18 503.614 655.589C503.614 648.999 489.498 648.999 484.792 648.058C480.086 647.116 450.912 635.818 450.912 635.818L420.796 639.584Z" fill="#2F2E41"/>
<path d="M243.482 582.275C243.482 582.275 216.282 578.671 217.432 588.433C218.582 598.195 228.28 613.487 229.028 615.214C229.534 616.385 235.478 631.199 239.263 640.64C241.998 647.561 246.107 653.855 251.342 659.142C255.042 662.841 259.074 665.807 261.719 664.661C267.764 662.042 262.153 649.083 261.146 644.389C260.14 639.695 258.907 608.423 258.907 608.423L243.482 582.275Z" fill="#2F2E41"/>
<path d="M432.56 224.863L462.676 155.193C462.676 155.193 459.852 148.603 453.265 149.544C453.265 149.544 444.324 126.478 427.384 126.478C427.384 126.478 401.974 112.356 394.445 126.478C394.445 126.478 378.446 140.6 379.387 153.781C380.328 166.962 381.269 176.376 381.269 176.376C381.269 176.376 366.211 178.259 369.035 185.791C371.858 193.323 372.799 193.323 369.035 196.147L365.27 198.972C365.27 198.972 287.157 269.583 330.449 373.146L334.213 389.151V404.214C334.213 404.214 429.266 405.156 429.266 404.214C429.266 403.273 427.384 397.624 431.148 393.858C434.913 390.092 434.913 384.443 434.913 384.443C434.913 384.443 431.148 365.614 433.031 359.965C434.913 354.316 435.854 329.838 432.089 324.189C428.325 318.54 430.207 273.349 430.207 273.349L438.677 257.344L435.854 247.929L433.031 238.514L432.56 224.863Z" fill="#8985A8"/>
<path opacity="0.1" d="M424.56 413.629C424.56 413.629 413.267 382.56 414.208 376.911C415.149 371.263 412.326 359.965 412.326 359.965L408.561 283.705C408.561 283.705 424.56 215.918 388.798 204.621C388.798 204.621 379.749 208.571 372.334 221.282C365.002 224.549 356.105 232.817 353.977 253.578C350.212 290.295 367.152 384.443 375.622 400.448C384.092 416.454 389.739 427.751 389.739 427.751L398.592 423.815C398.957 424.541 399.15 424.927 399.15 424.927L424.56 413.629Z" fill="black"/>
<path d="M429.737 216.389C431.296 216.389 432.56 215.125 432.56 213.565C432.56 212.005 431.296 210.74 429.737 210.74C428.177 210.74 426.913 212.005 426.913 213.565C426.913 215.125 428.177 216.389 429.737 216.389Z" fill="#F2F2F2"/>
<path d="M430.678 213.565H428.795V257.814H430.678V213.565Z" fill="#3F3D56"/>
<path d="M395.856 416.924L403.385 432.93C403.385 432.93 420.325 427.281 420.325 424.456C420.325 421.632 412.796 409.393 412.796 409.393L395.856 416.924Z" fill="#FFB8B8"/>
<path d="M385.034 204.621C385.034 204.621 363.388 214.036 359.623 250.753C355.859 287.471 372.799 381.619 381.269 397.624C389.739 413.629 395.386 424.927 395.386 424.927L420.796 413.629C420.796 413.629 409.503 382.56 410.444 376.912C411.385 371.263 408.561 359.965 408.561 359.965L404.797 283.705C404.797 283.705 420.796 215.918 385.034 204.621Z" fill="#8985A8"/>
</svg>
