<svg width="104" height="62" viewBox="0 0 104 62" fill="none" xmlns="http://www.w3.org/2000/svg">
<path d="M52 0.00317383C32.1297 0.00317383 14.1103 10.8744 0.813747 28.5322C-0.271249 29.9788 -0.271249 31.9999 0.813747 33.4466C14.1103 51.1256 32.1297 61.9968 52 61.9968C71.8703 61.9968 89.8897 51.1256 103.186 33.4678C104.271 32.0212 104.271 30.0001 103.186 28.5535C89.8897 10.8744 71.8703 0.00317383 52 0.00317383ZM53.4254 52.8276C40.2352 53.6573 29.3427 42.786 30.1724 29.5746C30.8532 18.6821 39.6821 9.85323 50.5746 9.17245C63.7648 8.34275 74.6573 19.214 73.8276 32.4254C73.1255 43.2966 64.2966 52.1255 53.4254 52.8276ZM52.7659 42.7435C45.6602 43.1903 39.7885 37.3398 40.2565 30.2341C40.6182 24.3624 45.3837 19.6182 51.2554 19.2353C58.361 18.7885 64.2328 24.639 63.7648 31.7446C63.3818 37.6376 58.6163 42.3818 52.7659 42.7435Z" fill="#6C63FF"/>
</svg>
